<svg width="46" height="46" viewBox="0 0 46 46" fill="none" xmlns="http://www.w3.org/2000/svg">
<path d="M45.8801 17.6454C45.579 16.7139 44.7528 16.0524 43.7754 15.9643L30.4985 14.7587L25.2485 2.47051C24.8614 1.56995 23.9798 0.987 23.0002 0.987C22.0207 0.987 21.1391 1.56995 20.752 2.47262L15.5019 14.7587L2.22298 15.9643C1.24731 16.0545 0.423253 16.7139 0.120374 17.6454C-0.182506 18.5768 0.0972104 19.5985 0.835282 20.2425L10.871 29.0439L7.91171 42.0796C7.69517 43.0381 8.06719 44.0289 8.86246 44.6037C9.28994 44.9126 9.79006 45.0698 10.2944 45.0698C10.7292 45.0698 11.1606 44.9526 11.5477 44.721L23.0002 37.8762L34.4486 44.721C35.2863 45.2249 36.3424 45.179 37.1359 44.6037C37.9315 44.0271 38.3032 43.036 38.0867 42.0796L35.1273 29.0439L45.1631 20.2442C45.9012 19.5985 46.183 18.5786 45.8801 17.6454Z" fill="black"/>
</svg>
