<svg width="20" height="12" viewBox="0 0 20 12" fill="none" xmlns="http://www.w3.org/2000/svg">
<path d="M19.8002 1.37055L18.7982 0.368684C18.6647 0.234896 18.5109 0.168213 18.3371 0.168213C18.1636 0.168213 18.0099 0.234896 17.8764 0.368684L10.0001 8.24454L2.12418 0.368895C1.9906 0.235107 1.83688 0.168423 1.66322 0.168423C1.48949 0.168423 1.33577 0.235107 1.20226 0.368895L0.200471 1.37083C0.0666833 1.50434 0 1.65806 0 1.83179C0 2.00537 0.0668939 2.15909 0.200471 2.2926L9.53915 11.6315C9.67266 11.7651 9.82645 11.8318 10.0001 11.8318C10.1738 11.8318 10.3273 11.7651 10.4607 11.6315L19.8002 2.2926C19.9337 2.15902 20 2.0053 20 1.83179C20 1.65806 19.9337 1.50434 19.8002 1.37055Z" fill="white" fill-opacity="0.12"/>
</svg>
